<?xml version="1.0" encoding="utf-8"?>
<?xml-stylesheet type="text/css" href="logo.css" ?>
<!-- Generator: Adobe Illustrator 26.3.0, SVG Export Plug-In . SVG Version: 6.00 Build 0)  -->
<svg version="1.1" id="Layer_1" xmlns="http://www.w3.org/2000/svg" xmlns:xlink="http://www.w3.org/1999/xlink" x="0px" y="0px"
	 viewBox="0 0 784.4 792.9" style="enable-background:new 0 0 784.4 792.9;" xml:space="preserve">
<g id="Layer_2_00000035529471298051743270000007656967005385109694_">
	<g id="Guides">
	</g>
</g>
<g id="Layer_1_00000075866577943207236970000017123452419235476100_">
	<g>
		<g>
			<g>
				<path d="M542.9,570.7c4.8-4,10.8-5.8,16.9-5.2l83.4,8.5c4.3,0.4,8.6-1.5,11.1-5l121.2-170c7.3-10.3,10.2-22.9,8.1-35.4
					c-2.1-12.5-8.9-23.5-19.2-30.8c-10.3-7.3-22.9-10.2-35.4-8.1c-12.5,2.1-23.5,8.9-30.8,19.2l-82.6,115.8l23.1-140.4
					c2-12.5-0.9-25-8.3-35.4s-18.4-17.2-30.8-19.2c-12.5-2-25,0.9-35.4,8.3S547,291.4,545,303.9l-22,133.6
					c-6.3-5.1-13.8-8.4-21.9-9.8c-12.5-2-25,0.9-35.4,8.3c-4.4,3.2-8.1,6.9-11.2,11.2c-6.8-6.9-15.8-11.9-26.1-13.6
					c-25.8-4.2-50.3,13.3-54.6,39.2l-11.5,69.8l-8.6,52.2c-13.6,82.4,42.5,160.6,124.9,174.1l6.3,1c8.9,1.5,17.8,2.2,26.7,2.2
					c33.7,0,66.5-10.5,94.4-30.5c35.3-25.3,58.6-62.8,65.6-105.7c0.5-3.3-0.3-6.7-2.4-9.4s-5.1-4.4-8.5-4.7l-105.6-10.2
					c-6.1-0.6-11.7-3.6-15.7-8.4c-4-4.8-5.8-10.8-5.2-17C535.2,580.3,538.1,574.7,542.9,570.7z M479.9,455.7c4-2.9,8.7-4.4,13.5-4.4
					c1.2,0,2.5,0.1,3.8,0.3c6.1,1,11.4,4.3,15.1,9.4s5.1,11.2,4.1,17.3l-11.5,69.8c-1,6.1-4.3,11.4-9.4,15.1s-11.2,5.1-17.3,4.1l0,0
					c-6.1-1-11.4-4.3-15.1-9.4s-5.1-11.2-4.1-17.3l1.5-8.9l7.1-43.4c0,0,0,0,0,0l2.9-17.4C471.5,464.7,474.8,459.3,479.9,455.7z
					 M397.8,476.7c2.1-12.6,14-21.2,26.7-19.2c12.6,2.1,21.2,14,19.2,26.7l-7.1,43.4l-4.3,26.3c-1,6.1-4.3,11.4-9.4,15.1
					s-11.2,5.1-17.3,4.1c-12.6-2.1-21.2-14-19.2-26.7L397.8,476.7z M553.1,635.9l92.1,8.9c-8.1,31.1-26.7,58.2-53.1,77.2
					c-30,21.5-66.6,30.1-103,24.1l-6.3-1c-69.2-11.4-116.3-77-104.9-146.2l1.9-11.4c6.2,4.9,13.6,8.4,21.9,9.8l0,0
					c2.6,0.4,5.2,0.6,7.8,0.6c9.8,0,19.4-3.1,27.6-9c4.4-3.2,8.1-7,11.2-11.2c7,7.2,16.1,11.9,26.1,13.6c2.6,0.4,5.2,0.6,7.8,0.6
					c9.8,0,19.4-3.1,27.6-9c0.4-0.3,0.7-0.5,1.1-0.8c-0.1,0.7-0.2,1.3-0.2,2c-1.2,12.6,2.6,24.9,10.7,34.7
					C529.1,628.6,540.5,634.7,553.1,635.9z M529,550.8l8.4-51.2c0,0,0,0,0,0l31.5-191.9c1-6.1,4.3-11.4,9.4-15.1s11.2-5.1,17.3-4.1
					s11.4,4.3,15.1,9.4s5.1,11.2,4.1,17.3l-31.5,191.9c-0.9,5.6,2.1,11,7.3,13.2c5.2,2.2,11.2,0.4,14.5-4.2L718,357.9
					c3.6-5,8.9-8.3,15.1-9.4c6.1-1,12.3,0.4,17.3,4s8.3,8.9,9.4,15.1c1,6.2-0.4,12.3-4,17.3L638.7,549.2l-76.5-7.8
					C550.3,540.2,538.5,543.6,529,550.8z" fill="#fff"/>
			</g>
			<g>
				<path d="M683.7,224.1c-10-33-25.8-61.8-44.8-86.7c-13-17.1-27.7-32.2-43-45.6l-2.7-2.3c-6.1-5.2-12.3-10.2-18.6-14.9l0,0l0,0
					l-0.1,0l0,0c-59.5-43-131.7-69.8-209.7-73.8V0.3l-1.7,0c-4.3-0.1-8.6-0.2-12.9-0.2c-1,0-2.1,0-3.1,0c-1,0-2.1,0-3.1,0
					c-4.3,0-8.6,0.1-12.9,0.2l-1.7,0v0.3c-78,4.1-150.2,30.8-209.7,73.8l-0.1,0l0,0l-0.1,0c-23.1,17.2-45.3,38-64.3,62.9
					c-19,24.8-34.7,53.7-44.8,86.7C3.4,247.7,0,272.1,0,296.4c0,20.8,2.5,41.7,7.2,62.1c19.3,83.8,58.5,191.3,118.5,278.9
					c30,43.8,65.3,82.6,106.4,110.8l0,0c49.9,34.2,97.5,42.6,119.7,44.7c7,0.6,13-4.9,13-11.9l0,0c0-6.2-4.7-11.4-10.9-11.9
					c-19.5-1.8-62.5-9.2-108.3-40.6c-56.8-38.8-103.8-101.9-139.8-170.9c-36.1-68.9-61.2-143.5-75.2-204.4
					c-4.3-18.7-6.6-37.7-6.6-56.7c0-22.1,3.1-44.1,9.5-65.3c9.2-30,23.4-56.3,40.9-79.1c17.4-22.8,37.9-42.1,59.5-58.1
					C193.5,50.8,266.4,25,345.4,24l0,0c0.6,0,1.2,0,1.8,0c0.6,0,1.2,0,1.8,0l0,0c79,1,151.8,26.8,211.5,69.8
					c21.6,16,42.1,35.3,59.5,58.1c17.4,22.8,31.7,49.1,40.9,79.1c2.3,7.7,4.1,15.8,5.3,21.8c1.1,5.6,6,9.6,11.7,9.6l0,0
					c7.5,0,13.2-6.8,11.7-14.2C688,240.9,686,231.8,683.7,224.1z" fill="#fff"/>
				<polygon points="119.7,74.5 119.7,74.5 119.8,74.5 				"/>
				<path d="M162.7,295.1c26,6.5,66.1,21.9,95.4,58.1l0,0c34.3,42.5,30.6,74.4,25.1,89.9c-2.6,7.3-9,12.4-16.6,13.5
					c-2.9,0.5-6.4,0.8-10.3,0.8c-19.2,0-48.9-7.6-80.2-43.8l0,0c-31.9-39.5-40-74.8-41.2-97.3c-1.2-23.3,1.4-23.8,3.7-25.5
					C140.9,289.2,162.7,295.1,162.7,295.1z M139.2,266.8L139.2,266.8c-13.2,0-24.5,9.4-26.8,22.4c-2.9,16.1-8.2,73.6,45,139.4
					l0.2,0.3l0.3,0.3c37.2,43,74.1,52.1,98.4,52.1c4.7,0,9.4-0.3,13.9-1c16.5-2.5,30.1-13.7,35.6-29.3c7.1-20,12.7-61.3-29-113
					c-46.3-57.3-114.6-68.9-134.5-71.1C141.2,266.9,140.2,266.8,139.2,266.8L139.2,266.8z" fill="#fff"/>
			</g>
		</g>
	</g>
</g>
</svg>
